<svg width="25" height="41" viewBox="0 0 25 41" fill="none" xmlns="http://www.w3.org/2000/svg">
<path d="M9.14682 8.06483C9.14682 7.7715 9.22682 7.50483 9.36015 7.26483L11.7335 2.91817C12.0268 2.35817 12.5868 2.03817 13.1735 2.03817C13.7602 2.03817 14.3202 2.38483 14.6135 2.91817L16.9868 7.26483C17.1202 7.50483 17.2002 7.79817 17.2002 8.06483V36.6248H9.14682V8.06483Z" stroke="#232B2F" stroke-width="2" stroke-linecap="round" stroke-linejoin="round"/>
<path d="M23.2536 28.3315C23.2536 26.9982 22.5869 25.7448 21.4936 24.9982C19.7069 23.7982 17.2269 22.1182 17.2269 22.1182V36.6515C17.2269 36.6515 18.5602 37.5582 20.0002 38.5182C20.6402 38.9448 21.4669 38.9982 22.1602 38.6248C22.8536 38.2515 23.2802 37.5582 23.2802 36.7848V28.3315H23.2536Z" stroke="#232B2F" stroke-width="2" stroke-linecap="round" stroke-linejoin="round"/>
<path d="M3.12008 28.3315C3.12008 26.9982 3.78675 25.7448 4.88008 24.9982C6.66675 23.7982 9.14675 22.1182 9.14675 22.1182V36.6515C9.14675 36.6515 7.81341 37.5582 6.37341 38.5182C5.73341 38.9448 4.90675 38.9982 4.21341 38.6248C3.52008 38.2515 3.09341 37.5582 3.09341 36.7848V28.3315H3.12008Z" stroke="#232B2F" stroke-width="2" stroke-linecap="round" stroke-linejoin="round"/>
<path d="M15.1202 36.6248H11.2536V37.7182C11.2536 38.6248 11.9736 39.3448 12.8802 39.3448H13.4669C14.3736 39.3448 15.0936 38.6248 15.0936 37.7182V36.6248H15.1202Z" stroke="#232B2F" stroke-width="2" stroke-linecap="round" stroke-linejoin="round"/>
</svg>
