<svg width="40" height="41" viewBox="0 0 40 41" fill="none" xmlns="http://www.w3.org/2000/svg">
<path d="M36.9893 11.4048C36.9893 10.4798 36.6236 9.57982 35.9899 8.92982C35.3561 8.27982 34.4786 7.90482 33.5768 7.90482H6.27676C5.37488 7.90482 4.49738 8.27982 3.86363 8.92982C3.22988 9.57982 2.86426 10.4798 2.86426 11.4048V29.9798C2.86426 30.9048 3.22988 31.8048 3.86363 32.4548C4.49738 33.1048 5.37488 33.4798 6.27676 33.4798H33.5768C34.4786 33.4798 35.3561 33.1048 35.9899 32.4548C36.6236 31.8048 36.9893 30.9048 36.9893 29.9798V11.4048Z" stroke="#232B2F" stroke-width="2" stroke-linecap="round" stroke-linejoin="round"/>
<path d="M36.9893 11.4048C36.9893 10.4798 36.6236 9.57982 35.9899 8.92982C35.3561 8.27982 34.4786 7.90482 33.5768 7.90482H6.27676C5.37488 7.90482 4.49738 8.27982 3.86363 8.92982C3.22988 9.57982 2.86426 10.4798 2.86426 11.4048V29.9798C2.86426 30.9048 3.22988 31.8048 3.86363 32.4548C4.49738 33.1048 5.37488 33.4798 6.27676 33.4798H33.5768C34.4786 33.4798 35.3561 33.1048 35.9899 32.4548C36.6236 31.8048 36.9893 30.9048 36.9893 29.9798V11.4048Z" stroke="#232B2F" stroke-width="2" stroke-linecap="round" stroke-linejoin="round"/>
<path d="M5.71625 11.2798C5.71625 11.2798 13.7112 20.8048 17.7087 24.3048C18.9762 25.4298 20.8775 25.4298 22.145 24.3048C26.1181 20.8048 34.0644 11.3548 34.0644 11.3548" stroke="#232B2F" stroke-width="2" stroke-linecap="round" stroke-linejoin="round"/>
<path d="M5.71625 30.5798L16.2706 23.2798" stroke="#232B2F" stroke-width="2" stroke-linecap="round" stroke-linejoin="round"/>
<path d="M23.583 23.2798L34.1374 30.5798" stroke="#232B2F" stroke-width="2" stroke-linecap="round" stroke-linejoin="round"/>
</svg>
