<svg width="37" height="37" viewBox="0 0 37 37" fill="none" xmlns="http://www.w3.org/2000/svg">
<path d="M5.45109 18.0939C5.45109 18.0939 4.32609 17.8136 3.00109 17.4824C2.22609 17.304 1.62609 16.6669 1.47609 15.877C1.30109 15.0871 1.60109 14.2717 2.22609 13.762C6.67609 10.2201 14.3761 4.0535 17.4011 1.63274C18.1511 1.02118 19.2011 1.02118 19.9511 1.63274C22.9761 4.0535 30.6761 10.2201 35.1511 13.7875C35.7761 14.2717 36.0511 15.0871 35.9011 15.9025C35.7261 16.6924 35.1261 17.304 34.3761 17.5078C33.0511 17.8391 31.9261 18.1194 31.9261 18.1194V33.5103C31.9261 34.0709 31.7011 34.6061 31.3261 34.9883C30.9511 35.396 30.4261 35.5998 29.8761 35.5998H7.52609C6.97609 35.5998 6.45109 35.3705 6.07609 34.9883C5.70109 34.6061 5.47609 34.0709 5.47609 33.5103V18.0939H5.45109Z" stroke="#232B2F" stroke-width="2" stroke-linecap="round" stroke-linejoin="round"/>
<path d="M22.1261 27.6241C22.1261 26.401 21.1511 25.4327 19.9761 25.4327H17.3761C16.1761 25.4327 15.2261 26.4265 15.2261 27.6241V35.5999H22.1261V27.6241Z" stroke="#232B2F" stroke-width="2" stroke-linecap="round" stroke-linejoin="round"/>
</svg>
