<svg width="41" height="39" viewBox="0 0 41 39" fill="none" xmlns="http://www.w3.org/2000/svg">
<g clip-path="url(#clip0_2_568)">
<path d="M11.3767 15.6549L10.2267 15.3799C9.87667 15.3049 9.60167 15.0049 9.50167 14.6549C9.42667 14.3049 9.55167 13.9299 9.85167 13.7049C11.9267 12.0799 15.5017 9.25486 16.9017 8.15486C17.2517 7.87986 17.7517 7.87986 18.0767 8.15486C19.4767 9.25486 23.0517 12.0799 25.1267 13.7049C25.4267 13.9299 25.5517 14.3049 25.4767 14.6549C25.4017 15.0049 25.1267 15.3049 24.7517 15.3799L23.6017 15.6549V22.6799C23.6017 22.9299 23.5017 23.1799 23.3267 23.3549C23.1517 23.5299 22.9017 23.6299 22.6517 23.6299H12.3267C12.0767 23.6299 11.8267 23.5299 11.6517 23.3549C11.4767 23.1799 11.3767 22.9299 11.3767 22.6799V15.6549Z" stroke="#232B2F" stroke-width="2" stroke-linecap="round" stroke-linejoin="round"/>
<path d="M19.1266 19.9799C19.1266 19.4299 18.6766 18.9799 18.1266 18.9799H16.9266C16.3766 18.9799 15.9266 19.4299 15.9266 19.9799V23.6049H19.1266V19.9799V19.9799Z" stroke="#232B2F" stroke-width="2" stroke-linecap="round" stroke-linejoin="round"/>
<path d="M28.6018 3.20483H6.42676C4.49376 3.20483 2.92676 4.77184 2.92676 6.70483V28.8798C2.92676 30.8128 4.49376 32.3798 6.42676 32.3798H28.6018C30.5348 32.3798 32.1018 30.8128 32.1018 28.8798V6.70483C32.1018 4.77184 30.5348 3.20483 28.6018 3.20483Z" stroke="#232B2F" stroke-width="2" stroke-linecap="round" stroke-linejoin="round"/>
<path d="M8.75165 28.0048H26.2516" stroke="#232B2F" stroke-width="2" stroke-linecap="round" stroke-linejoin="round"/>
<path d="M8.75165 32.3798V34.7048C8.75165 36.6298 10.3266 38.2048 12.2516 38.2048H34.4266C36.3516 38.2048 37.9266 36.6298 37.9266 34.7048V12.5298C37.9266 10.6048 36.3516 9.02985 34.4266 9.02985H32.1016" stroke="#232B2F" stroke-width="2" stroke-linecap="round" stroke-linejoin="round"/>
</g>
<defs>
<clipPath id="clip0_2_568">
<rect width="40" height="38" fill="white" transform="translate(0.426758 0.704834)"/>
</clipPath>
</defs>
</svg>
