<svg width="41" height="41" viewBox="0 0 41 41" fill="none" xmlns="http://www.w3.org/2000/svg">
<g clip-path="url(#clip0_2_561)">
<path d="M10.0268 11.4548H5.42676V30.3048H10.0268V11.4548Z" stroke="#232B2F" stroke-width="2" stroke-linecap="round" stroke-linejoin="round"/>
<path d="M10.0268 9.12981C10.0268 8.20481 9.27676 7.47981 8.37676 7.47981H7.07676C6.15176 7.47981 5.42676 8.22981 5.42676 9.12981V11.4548H10.0268V9.12981Z" stroke="#232B2F" stroke-width="2" stroke-linecap="round" stroke-linejoin="round"/>
<path d="M6.95176 33.8548C7.07676 34.1548 7.37676 34.3548 7.70176 34.3548C8.02676 34.3548 8.32676 34.1548 8.45176 33.8548C9.12676 32.3048 10.0018 30.2798 10.0018 30.2798H5.42676C5.42676 30.2798 6.30176 32.3048 6.97676 33.8548H6.95176Z" stroke="#232B2F" stroke-width="2" stroke-linecap="round" stroke-linejoin="round"/>
<path d="M5.42676 13.4048H10.0268" stroke="#232B2F" stroke-width="2" stroke-linecap="round" stroke-linejoin="round"/>
<path d="M7.72687 34.3548V34.6798C7.72687 35.6048 8.10187 36.5048 8.75187 37.1548C9.40187 37.8048 10.3019 38.1798 11.2269 38.1798H30.4769C31.4019 38.1798 32.3019 37.8048 32.9519 37.1548C33.6019 36.5048 33.9769 35.6048 33.9769 34.6798V9.45483L28.1269 3.20483H11.2269C9.30187 3.20483 7.72687 4.77983 7.72687 6.70483V7.47983" stroke="#232B2F" stroke-width="2" stroke-linecap="round" stroke-linejoin="round"/>
<path d="M28.1266 3.20483V7.65483C28.1266 8.12983 28.3266 8.60483 28.6516 8.95483C28.9766 9.30483 29.4516 9.47983 29.9516 9.47983H33.9516" stroke="#232B2F" stroke-width="2" stroke-linecap="round" stroke-linejoin="round"/>
<path d="M13.5518 13.5048H28.1268" stroke="#232B2F" stroke-width="2" stroke-linecap="round" stroke-linejoin="round"/>
<path d="M13.5518 18.3048H28.1268" stroke="#232B2F" stroke-width="2" stroke-linecap="round" stroke-linejoin="round"/>
<path d="M13.5518 23.0798H28.1268" stroke="#232B2F" stroke-width="2" stroke-linecap="round" stroke-linejoin="round"/>
<path d="M13.5518 27.8798H28.1268" stroke="#232B2F" stroke-width="2" stroke-linecap="round" stroke-linejoin="round"/>
</g>
<defs>
<clipPath id="clip0_2_561">
<rect width="40" height="40" fill="white" transform="translate(0.426758 0.704834)"/>
</clipPath>
</defs>
</svg>
