<svg width="41" height="41" viewBox="0 0 41 41" fill="none" xmlns="http://www.w3.org/2000/svg">
<g clip-path="url(#clip0_2_552)">
<g clip-path="url(#clip1_2_552)">
<path d="M28.9059 5.33379L4.00244 30.246L9.41275 35.6544L34.3162 10.7422L28.9059 5.33379Z" stroke="#232B2F" stroke-width="2" stroke-linecap="round" stroke-linejoin="round"/>
<path d="M37.3018 7.72985C37.7518 7.27985 37.9768 6.70485 37.9768 6.07985C37.9768 5.45485 37.7268 4.85485 37.3018 4.42985C36.6268 3.75485 35.8768 3.00485 35.2018 2.32985C34.7518 1.87985 34.1768 1.65485 33.5518 1.65485C32.9268 1.65485 32.3268 1.90485 31.9018 2.32985C30.5518 3.67985 28.9018 5.32985 28.9018 5.32985L34.3018 10.7298C34.3018 10.7298 35.9768 9.05485 37.3018 7.72985V7.72985Z" stroke="#232B2F" stroke-width="2" stroke-linecap="round" stroke-linejoin="round"/>
<path d="M1.45175 36.6799C1.27675 37.1049 1.37675 37.6049 1.70175 37.9299C2.02675 38.2549 2.52675 38.3549 2.95175 38.1799C5.60175 37.1299 9.40175 35.6299 9.40175 35.6299L4.00175 30.2299C4.00175 30.2299 2.50175 34.0299 1.45175 36.6799V36.6799Z" stroke="#232B2F" stroke-width="2" stroke-linecap="round" stroke-linejoin="round"/>
<path d="M26.8768 7.35486L32.2768 12.7549" stroke="#232B2F" stroke-width="2" stroke-linejoin="round"/>
</g>
</g>
<defs>
<clipPath id="clip0_2_552">
<rect width="40" height="40" fill="white" transform="translate(0.426758 0.704834)"/>
</clipPath>
<clipPath id="clip1_2_552">
<rect width="38.5" height="38.5" fill="white" transform="translate(0.426758 0.704834)"/>
</clipPath>
</defs>
</svg>
