<svg width="41" height="41" viewBox="0 0 41 41" fill="none" xmlns="http://www.w3.org/2000/svg">
<g clip-path="url(#clip0_2_551)">
<path d="M17.4768 26.0798H16.2268C15.3018 26.0798 9.65181 28.0798 8.27681 29.2048C6.87681 30.3298 6.10181 31.8548 6.10181 33.4298V38.2048" stroke="#232B2F" stroke-width="2" stroke-miterlimit="5" stroke-linecap="round"/>
<path d="M34.7517 38.2048V33.4298C34.7517 31.8548 33.9767 30.3298 32.5767 29.2048C31.1767 28.0798 25.5517 26.0798 24.6267 26.0798H23.3767" stroke="#232B2F" stroke-width="2" stroke-miterlimit="5" stroke-linecap="round"/>
<path d="M27.8018 15.4548C27.2518 19.3548 24.2018 22.3548 20.5018 22.3548C16.8018 22.3548 14.0018 19.6048 13.2768 15.9298" stroke="#232B2F" stroke-width="2" stroke-miterlimit="5" stroke-linecap="round"/>
<path d="M24.7269 4.62984C24.7269 4.62984 22.1519 1.97984 16.8519 3.87984C14.1769 4.82984 12.6269 7.55484 12.4269 9.87984C12.2519 11.9548 13.3019 15.9048 13.3019 15.9048" stroke="#232B2F" stroke-width="2" stroke-miterlimit="5" stroke-linecap="round"/>
<path d="M23.1768 9.87982C23.1768 9.87982 22.2268 12.6798 17.0518 12.2548C14.5518 12.0548 13.3268 15.9048 13.3268 15.9048" stroke="#232B2F" stroke-width="2" stroke-miterlimit="5" stroke-linecap="round"/>
<path d="M23.1768 9.87982C23.1768 9.87982 23.8268 12.5048 25.4768 12.6548C27.1268 12.8048 27.8018 15.4548 27.8018 15.4548" stroke="#232B2F" stroke-width="2" stroke-miterlimit="5" stroke-linecap="round"/>
<path d="M24.7268 4.62982C24.7268 4.62982 26.7018 4.90482 27.8018 8.02982C29.0518 11.5798 27.8018 15.4298 27.8018 15.4298" stroke="#232B2F" stroke-width="2" stroke-miterlimit="5" stroke-linecap="round"/>
<path d="M17.4768 21.6299V26.1049C19.4518 28.1049 21.4018 28.0549 23.3768 26.1049V21.7299" stroke="#232B2F" stroke-width="2" stroke-miterlimit="5" stroke-linecap="round"/>
<path d="M34.7518 38.2048H6.10181" stroke="#232B2F" stroke-width="2" stroke-linecap="round" stroke-linejoin="round"/>
</g>
<defs>
<clipPath id="clip0_2_551">
<rect width="40" height="40" fill="white" transform="translate(0.426758 0.704834)"/>
</clipPath>
</defs>
</svg>
