<svg width="41" height="41" viewBox="0 0 41 41" fill="none" xmlns="http://www.w3.org/2000/svg">
<g clip-path="url(#clip0_2_569)">
<path d="M20.4268 15.5548C23.2768 15.5548 25.5768 17.8548 25.5768 20.7048C25.5768 23.5548 23.2768 25.8548 20.4268 25.8548C17.5768 25.8548 15.2768 23.5548 15.2768 20.7048C15.2768 17.8548 17.5768 15.5548 20.4268 15.5548V15.5548ZM23.0768 4.62981C22.8768 3.82981 22.2018 3.27981 21.3768 3.22981C20.7518 3.20481 20.1268 3.20481 19.5018 3.22981C18.7018 3.27981 18.0018 3.85481 17.8018 4.62981C17.4018 6.17981 16.7768 8.62981 16.7768 8.62981C15.9768 8.87981 15.2268 9.17981 14.5018 9.57981L10.9518 7.47981C10.2518 7.05481 9.37676 7.15481 8.75176 7.67981C8.27676 8.10481 7.85176 8.55481 7.42676 9.02981C6.87676 9.62981 6.80176 10.5298 7.22676 11.2048C8.05176 12.6048 9.32676 14.7548 9.32676 14.7548C8.92676 15.4798 8.62676 16.2548 8.37676 17.0298C8.37676 17.0298 5.92676 17.6548 4.37676 18.0548C3.57676 18.2548 3.02676 18.9298 2.97676 19.7548C2.95176 20.3798 2.95176 21.0048 2.97676 21.6548C3.02676 22.4548 3.60176 23.1548 4.37676 23.3548C5.92676 23.7548 8.37676 24.3798 8.37676 24.3798C8.62676 25.1798 8.92676 25.9298 9.32676 26.6548C9.32676 26.6548 8.02676 28.8298 7.22676 30.2048C6.80176 30.9048 6.90176 31.7798 7.42676 32.4048C7.85176 32.8798 8.30176 33.3048 8.77676 33.7298C9.37676 34.2548 10.2768 34.3548 10.9518 33.9298C12.3518 33.1048 14.5018 31.8298 14.5018 31.8298C15.2268 32.2298 16.0018 32.5298 16.7768 32.7798C16.7768 32.7798 17.4018 35.2298 17.8018 36.7798C18.0018 37.5798 18.6768 38.1298 19.5018 38.1798C20.1268 38.2048 20.7518 38.2048 21.3768 38.1798C22.1768 38.1298 22.8768 37.5548 23.0768 36.7798C23.4768 35.2298 24.1018 32.7798 24.1018 32.7798C24.9018 32.5298 25.6518 32.2298 26.3768 31.8298C26.3768 31.8298 28.5518 33.1298 29.9268 33.9298C30.6268 34.3548 31.5018 34.2548 32.1268 33.7298C32.6018 33.3048 33.0268 32.8548 33.4518 32.3798C34.0018 31.7798 34.0768 30.8798 33.6518 30.2048C32.8268 28.8048 31.5518 26.6548 31.5518 26.6548C31.9518 25.9298 32.2518 25.1548 32.5018 24.3798C32.5018 24.3798 34.9518 23.7548 36.5018 23.3548C37.3018 23.1548 37.8518 22.4798 37.9018 21.6548C37.9268 21.0298 37.9268 20.4048 37.9018 19.7798C37.8518 18.9798 37.2768 18.2798 36.5018 18.0798C34.9518 17.6798 32.5018 17.0548 32.5018 17.0548C32.2518 16.2548 31.9518 15.5048 31.5518 14.7798L33.6518 11.2298C34.0768 10.5298 33.9768 9.65481 33.4518 9.02981C33.0268 8.55481 32.5768 8.12981 32.1018 7.70481C31.5018 7.15481 30.6018 7.07981 29.9268 7.50481C28.5268 8.32981 26.3768 9.60481 26.3768 9.60481C25.6518 9.20481 24.8768 8.90481 24.1018 8.65481L23.0768 4.65481V4.62981Z" stroke="#232B2F" stroke-width="2" stroke-linecap="round" stroke-linejoin="round"/>
</g>
<defs>
<clipPath id="clip0_2_569">
<rect width="40" height="40" fill="white" transform="translate(0.426758 0.704834)"/>
</clipPath>
</defs>
</svg>
